<svg width="115" height="35" viewBox="0 0 115 35" fill="none" xmlns="http://www.w3.org/2000/svg">
<path d="M22.9062 19.3594C22.8125 20.4219 22.7031 21.5938 22.5781 22.875C22.4844 24.125 22.3906 25.4219 22.2969 26.7656L21.6875 34.7344L18.7812 34.4531L19.4375 25.6406C19.2188 25.9531 18.8594 26.3438 18.3594 26.8125C17.8906 27.2812 17.2969 27.7344 16.5781 28.1719C15.8594 28.5781 15.0312 28.9375 14.0938 29.25C13.1562 29.5625 12.1406 29.7188 11.0469 29.7188C9.54688 29.7188 8.14062 29.4219 6.82812 28.8281C5.54688 28.2344 4.4375 27.4062 3.5 26.3438C2.5625 25.2812 1.8125 24.0156 1.25 22.5469C0.71875 21.0469 0.453125 19.4062 0.453125 17.625C0.453125 15.25 0.75 13.0469 1.34375 11.0156C1.96875 8.95312 2.8125 7.17188 3.875 5.67188C4.96875 4.14063 6.26562 2.95312 7.76562 2.10938C9.26562 1.23438 10.9062 0.796875 12.6875 0.796875C13.75 0.796875 14.7344 0.9375 15.6406 1.21875C16.5781 1.46875 17.4062 1.8125 18.125 2.25C18.8438 2.65625 19.4531 3.14062 19.9531 3.70312C20.4531 4.26562 20.8125 4.82812 21.0312 5.39062L18.5 6.70312C17.875 5.70312 17.0781 4.96875 16.1094 4.5C15.1406 4.03125 14.125 3.79688 13.0625 3.79688C11.75 3.79688 10.5156 4.125 9.35938 4.78125C8.23438 5.40625 7.25 6.3125 6.40625 7.5C5.59375 8.65625 4.9375 10.0625 4.4375 11.7188C3.96875 13.3438 3.73438 15.1406 3.73438 17.1094C3.73438 18.3281 3.89062 19.5156 4.20312 20.6719C4.54688 21.7969 5.03125 22.7969 5.65625 23.6719C6.3125 24.5156 7.125 25.2031 8.09375 25.7344C9.0625 26.2344 10.2031 26.4844 11.5156 26.4844C12.5156 26.4844 13.4688 26.2812 14.375 25.875C15.3125 25.4688 16.1406 24.9375 16.8594 24.2812C17.5781 23.625 18.1562 22.875 18.5938 22.0312C19.0625 21.1562 19.3438 20.2656 19.4375 19.3594H11.375V16.3594H27.9688V19.3594H22.9062ZM32.5625 30.6094V2.95312H35.8438V29.4844H52.7188V32.8594H34.4375L32.5625 30.6094ZM67.9062 32.0156H56.75V29.3906H60.4062V5.95312H55.1562V3.42188L65.4688 2.76562V5.48438L62.0938 5.76562V29.2031H67.9062V32.0156ZM73.9062 34.0781L72.4062 32.2031C72.2188 27.5156 72.0781 22.9375 71.9844 18.4688C71.9219 14 71.8125 9.42188 71.6562 4.73438L73.0625 3.04688C73.625 2.98437 74.1719 2.9375 74.7031 2.90625C75.2656 2.875 75.8125 2.85938 76.3438 2.85938C78.5312 2.85938 80.5312 3.14062 82.3438 3.70312C84.1875 4.26562 85.7656 5.15625 87.0781 6.375C88.3906 7.59375 89.4062 9.15625 90.125 11.0625C90.875 12.9688 91.25 15.25 91.25 17.9062C91.25 20.2812 90.8125 22.4688 89.9375 24.4688C89.0938 26.4375 87.9219 28.1406 86.4219 29.5781C84.9219 30.9844 83.1562 32.0938 81.125 32.9062C79.125 33.6875 76.9688 34.0781 74.6562 34.0781H73.9062ZM74.5625 5.95312L75.5 30.9844C77.3125 30.7969 79 30.3594 80.5625 29.6719C82.125 28.9531 83.4688 28.0312 84.5938 26.9062C85.75 25.7812 86.6406 24.4688 87.2656 22.9688C87.9219 21.4375 88.25 19.7812 88.25 18C88.25 16.0938 88.0156 14.3906 87.5469 12.8906C87.1094 11.3906 86.3906 10.125 85.3906 9.09375C84.4219 8.0625 83.1562 7.28125 81.5938 6.75C80.0312 6.1875 78.1562 5.90625 75.9688 5.90625C75.75 5.90625 75.5156 5.92188 75.2656 5.95312C75.0469 5.95312 74.8125 5.95312 74.5625 5.95312ZM114.5 29.7656V33.0469H96.6875L95 30.7969V6.04688L96.875 3.32812H111.969V6.04688H98.2812V16.5469H112.906V19.0781H98.0938V29.7656H114.5Z" fill="white"/>
</svg>
