<svg width="123" height="132" viewBox="0 0 123 132" fill="none" xmlns="http://www.w3.org/2000/svg">
<g clip-path="url(#clip0_87_13)">
<rect x="0.360229" y="0.101166" width="122" height="131" rx="14" fill="#E9E6E6"/>
<circle cx="94.3602" cy="24.1012" r="7" fill="url(#paint0_linear_87_13)"/>
<path d="M32.8602 48.1012L0.360229 91.1012V130.601H121.86V85.6012L85.3602 63.1012L60.8602 85.6012L32.8602 48.1012Z" fill="white" stroke="#908A8A" stroke-width="2"/>
<path d="M47.7977 102.625L44.7977 103.234L44.704 101.687L51.1259 100.328L51.5009 101.875L49.3915 102.484L51.1259 107.828C51.2977 108.328 51.4305 108.89 51.5243 109.515C51.618 110.14 51.6649 110.765 51.6649 111.39C51.6649 112.047 51.5946 112.687 51.454 113.312C51.3134 113.922 51.0712 114.468 50.7274 114.953C50.3837 115.422 49.9227 115.804 49.3446 116.101C48.7665 116.382 48.0321 116.523 47.1415 116.523C46.4696 116.523 45.8915 116.406 45.4071 116.172C44.9384 115.953 44.5399 115.64 44.2118 115.234C43.8993 114.812 43.6493 114.32 43.4618 113.757C43.2743 113.195 43.1415 112.578 43.0634 111.906L44.6102 111.672C44.704 112.718 44.9384 113.5 45.3134 114.015C45.704 114.515 46.3524 114.765 47.2587 114.765C48.3212 114.765 49.0555 114.476 49.4618 113.898C49.8837 113.304 50.0946 112.422 50.0946 111.25C50.0946 110.734 50.0634 110.265 50.0009 109.843C49.954 109.406 49.868 108.976 49.743 108.554C49.6337 108.117 49.493 107.656 49.3212 107.172C49.1493 106.672 48.954 106.109 48.7352 105.484L47.7977 102.625ZM55.0634 102.906L55.5321 108.343C56.1102 108.343 56.7509 108.32 57.454 108.273C58.1727 108.211 58.8446 108.078 59.4696 107.875C60.0946 107.672 60.618 107.375 61.0399 106.984C61.4774 106.593 61.6962 106.054 61.6962 105.367C61.6962 104.836 61.579 104.398 61.3446 104.054C61.1102 103.695 60.7977 103.422 60.4071 103.234C60.0165 103.031 59.5712 102.89 59.0712 102.812C58.5868 102.734 58.079 102.695 57.5477 102.695C57.079 102.695 56.6259 102.718 56.1884 102.765C55.7509 102.797 55.3759 102.843 55.0634 102.906ZM55.579 109.797L56.1415 117.39L54.6415 117.484L53.5165 102.343L54.2665 101.453C54.7977 101.406 55.329 101.367 55.8602 101.336C56.3915 101.304 56.9149 101.289 57.4305 101.289C58.243 101.289 58.993 101.343 59.6805 101.453C60.3837 101.562 60.993 101.773 61.5087 102.086C62.0243 102.382 62.4305 102.804 62.7274 103.351C63.0243 103.882 63.1727 104.578 63.1727 105.437C63.1727 106.437 62.9227 107.218 62.4227 107.781C61.9384 108.343 61.3212 108.773 60.5712 109.07C59.8212 109.351 59.0009 109.539 58.1102 109.632C57.2196 109.711 56.3759 109.765 55.579 109.797ZM75.3602 109.281C75.3134 109.812 75.2587 110.398 75.1962 111.039C75.1493 111.664 75.1024 112.312 75.0555 112.984L74.7509 116.968L73.2977 116.828L73.6259 112.422C73.5165 112.578 73.3368 112.773 73.0868 113.007C72.8524 113.242 72.5555 113.468 72.1962 113.687C71.8368 113.89 71.4227 114.07 70.954 114.226C70.4852 114.382 69.9774 114.461 69.4305 114.461C68.6805 114.461 67.9774 114.312 67.3212 114.015C66.6805 113.718 66.1259 113.304 65.6571 112.773C65.1884 112.242 64.8134 111.609 64.5321 110.875C64.2665 110.125 64.1337 109.304 64.1337 108.414C64.1337 107.226 64.2821 106.125 64.579 105.109C64.8915 104.078 65.3134 103.187 65.8446 102.437C66.3915 101.672 67.0399 101.078 67.7899 100.656C68.5399 100.218 69.3602 99.9996 70.2509 99.9996C70.7821 99.9996 71.2743 100.07 71.7274 100.211C72.1962 100.336 72.6102 100.507 72.9696 100.726C73.329 100.929 73.6337 101.172 73.8837 101.453C74.1337 101.734 74.3134 102.015 74.4227 102.297L73.1571 102.953C72.8446 102.453 72.4462 102.086 71.9618 101.851C71.4774 101.617 70.9696 101.5 70.4384 101.5C69.7821 101.5 69.1649 101.664 68.5868 101.992C68.0243 102.304 67.5321 102.757 67.1102 103.351C66.704 103.929 66.3759 104.632 66.1259 105.461C65.8915 106.273 65.7743 107.172 65.7743 108.156C65.7743 108.765 65.8524 109.359 66.0087 109.937C66.1805 110.5 66.4227 111 66.7352 111.437C67.0634 111.859 67.4696 112.203 67.954 112.468C68.4384 112.718 69.0087 112.843 69.6649 112.843C70.1649 112.843 70.6415 112.742 71.0946 112.539C71.5634 112.336 71.9774 112.07 72.3368 111.742C72.6962 111.414 72.9852 111.039 73.204 110.617C73.4384 110.179 73.579 109.734 73.6259 109.281H69.5946V107.781H77.8915V109.281H75.3602Z" fill="#908A8A"/>
</g>
<rect x="1.36023" y="1.10117" width="120" height="129" rx="13" stroke="#908A8A" stroke-width="2"/>
<defs>
<linearGradient id="paint0_linear_87_13" x1="98.8602" y1="19.1012" x2="89.8602" y2="29.6012" gradientUnits="userSpaceOnUse">
<stop stop-color="#999999"/>
<stop offset="0.5" stop-color="#CCCCCC"/>
<stop offset="1" stop-color="white"/>
</linearGradient>
<clipPath id="clip0_87_13">
<rect x="0.360229" y="0.101166" width="122" height="131" rx="14" fill="white"/>
</clipPath>
</defs>
</svg>
