<svg width="122" height="131" viewBox="0 0 122 131" fill="none" xmlns="http://www.w3.org/2000/svg">
<g clip-path="url(#clip0_20_27)">
<rect width="122" height="131" rx="14" fill="#E9E6E6"/>
<circle cx="94" cy="34" r="7" fill="url(#paint0_linear_20_27)"/>
<path d="M32.5 48L0 91V130.5H121.5V85.5L85 63L60.5 85.5L32.5 48Z" fill="white" stroke="#908A8A" stroke-width="2"/>
<path d="M47.4375 102.523L44.4375 103.133L44.3438 101.586L50.7656 100.227L51.1406 101.773L49.0312 102.383L50.7656 107.727C50.9375 108.227 51.0703 108.789 51.1641 109.414C51.2578 110.039 51.3047 110.664 51.3047 111.289C51.3047 111.945 51.2344 112.586 51.0938 113.211C50.9531 113.82 50.7109 114.367 50.3672 114.852C50.0234 115.32 49.5625 115.703 48.9844 116C48.4062 116.281 47.6719 116.422 46.7812 116.422C46.1094 116.422 45.5312 116.305 45.0469 116.07C44.5781 115.852 44.1797 115.539 43.8516 115.133C43.5391 114.711 43.2891 114.219 43.1016 113.656C42.9141 113.094 42.7812 112.477 42.7031 111.805L44.25 111.57C44.3438 112.617 44.5781 113.398 44.9531 113.914C45.3438 114.414 45.9922 114.664 46.8984 114.664C47.9609 114.664 48.6953 114.375 49.1016 113.797C49.5234 113.203 49.7344 112.32 49.7344 111.148C49.7344 110.633 49.7031 110.164 49.6406 109.742C49.5938 109.305 49.5078 108.875 49.3828 108.453C49.2734 108.016 49.1328 107.555 48.9609 107.07C48.7891 106.57 48.5938 106.008 48.375 105.383L47.4375 102.523ZM54.7031 102.805L55.1719 108.242C55.75 108.242 56.3906 108.219 57.0938 108.172C57.8125 108.109 58.4844 107.977 59.1094 107.773C59.7344 107.57 60.2578 107.273 60.6797 106.883C61.1172 106.492 61.3359 105.953 61.3359 105.266C61.3359 104.734 61.2188 104.297 60.9844 103.953C60.75 103.594 60.4375 103.32 60.0469 103.133C59.6562 102.93 59.2109 102.789 58.7109 102.711C58.2266 102.633 57.7188 102.594 57.1875 102.594C56.7188 102.594 56.2656 102.617 55.8281 102.664C55.3906 102.695 55.0156 102.742 54.7031 102.805ZM55.2188 109.695L55.7812 117.289L54.2812 117.383L53.1562 102.242L53.9062 101.352C54.4375 101.305 54.9688 101.266 55.5 101.234C56.0312 101.203 56.5547 101.188 57.0703 101.188C57.8828 101.188 58.6328 101.242 59.3203 101.352C60.0234 101.461 60.6328 101.672 61.1484 101.984C61.6641 102.281 62.0703 102.703 62.3672 103.25C62.6641 103.781 62.8125 104.477 62.8125 105.336C62.8125 106.336 62.5625 107.117 62.0625 107.68C61.5781 108.242 60.9609 108.672 60.2109 108.969C59.4609 109.25 58.6406 109.438 57.75 109.531C56.8594 109.609 56.0156 109.664 55.2188 109.695ZM75 109.18C74.9531 109.711 74.8984 110.297 74.8359 110.938C74.7891 111.562 74.7422 112.211 74.6953 112.883L74.3906 116.867L72.9375 116.727L73.2656 112.32C73.1562 112.477 72.9766 112.672 72.7266 112.906C72.4922 113.141 72.1953 113.367 71.8359 113.586C71.4766 113.789 71.0625 113.969 70.5938 114.125C70.125 114.281 69.6172 114.359 69.0703 114.359C68.3203 114.359 67.6172 114.211 66.9609 113.914C66.3203 113.617 65.7656 113.203 65.2969 112.672C64.8281 112.141 64.4531 111.508 64.1719 110.773C63.9062 110.023 63.7734 109.203 63.7734 108.312C63.7734 107.125 63.9219 106.023 64.2188 105.008C64.5312 103.977 64.9531 103.086 65.4844 102.336C66.0312 101.57 66.6797 100.977 67.4297 100.555C68.1797 100.117 69 99.8984 69.8906 99.8984C70.4219 99.8984 70.9141 99.9688 71.3672 100.109C71.8359 100.234 72.25 100.406 72.6094 100.625C72.9688 100.828 73.2734 101.07 73.5234 101.352C73.7734 101.633 73.9531 101.914 74.0625 102.195L72.7969 102.852C72.4844 102.352 72.0859 101.984 71.6016 101.75C71.1172 101.516 70.6094 101.398 70.0781 101.398C69.4219 101.398 68.8047 101.562 68.2266 101.891C67.6641 102.203 67.1719 102.656 66.75 103.25C66.3438 103.828 66.0156 104.531 65.7656 105.359C65.5312 106.172 65.4141 107.07 65.4141 108.055C65.4141 108.664 65.4922 109.258 65.6484 109.836C65.8203 110.398 66.0625 110.898 66.375 111.336C66.7031 111.758 67.1094 112.102 67.5938 112.367C68.0781 112.617 68.6484 112.742 69.3047 112.742C69.8047 112.742 70.2812 112.641 70.7344 112.438C71.2031 112.234 71.6172 111.969 71.9766 111.641C72.3359 111.312 72.625 110.938 72.8438 110.516C73.0781 110.078 73.2188 109.633 73.2656 109.18H69.2344V107.68H77.5312V109.18H75Z" fill="#908A8A"/>
</g>
<rect x="1" y="1" width="120" height="129" rx="13" stroke="#908A8A" stroke-width="2"/>
<defs>
<linearGradient id="paint0_linear_20_27" x1="98.5" y1="29" x2="89.5" y2="39.5" gradientUnits="userSpaceOnUse">
<stop stop-color="#999999"/>
<stop offset="0.5" stop-color="#CCCCCC"/>
<stop offset="1" stop-color="white"/>
</linearGradient>
<clipPath id="clip0_20_27">
<rect width="122" height="131" rx="14" fill="white"/>
</clipPath>
</defs>
</svg>
