<svg width="110" height="108" viewBox="0 0 110 108" fill="none" xmlns="http://www.w3.org/2000/svg">
<path fill-rule="evenodd" clip-rule="evenodd" d="M72.0326 0.00549249C72.2939 -0.0812501 73.6872 0.872918 75.0805 1.91383C76.4738 3.04148 77.9541 4.60285 78.3025 5.38353C78.7379 6.25096 78.7379 7.63884 78.3025 8.41952C77.9541 9.28695 74.6451 11.8025 71.1618 14.0578C67.5915 16.3131 63.2374 18.7419 61.4958 19.4358C59.6671 20.2165 57.7513 20.8237 57.3159 20.8237C56.8805 20.8237 56.4451 20.4767 56.4451 19.9563C56.4451 19.4358 59.4929 15.5324 63.2374 11.282C66.8948 6.9449 70.291 2.60777 70.7264 1.74034C71.1618 0.786176 71.6843 0.00549249 72.0326 0.00549249ZM37.7226 3.56194C39.203 3.4752 40.7705 3.99565 41.3801 4.68959C41.9896 5.47027 42.2509 6.68467 42.0767 7.37861C41.8155 8.07255 38.7676 10.0676 35.3715 11.7157C31.8882 13.3638 27.2729 15.012 25.0959 15.3589C21.5255 15.8794 21.0031 15.7059 18.826 13.3638C17.4327 11.976 16.2136 9.46043 15.9524 7.81232C15.6911 6.16422 15.604 4.68959 15.6911 4.51611C15.8653 4.42936 17.3457 4.94982 19.0002 5.7305C21.8739 7.03164 22.4834 7.03164 28.5791 5.38353C32.1494 4.42936 36.3293 3.56194 37.7226 3.56194ZM50.0011 19.9563C50.8719 19.9563 52.5264 20.5635 53.6585 21.2574C55.4001 22.3851 56.2709 22.3851 62.3666 21.2574C66.024 20.5635 71.336 19.9563 74.1226 19.9563C76.8221 19.9563 80.0441 20.4767 81.2632 21.0839C82.4824 21.6044 83.9627 23.1658 84.4852 24.4669C85.269 26.3752 85.1819 27.7631 84.0498 30.9726C83.2661 33.3146 81.7857 36.1771 80.6537 37.3915C78.7379 39.4734 78.1283 39.6468 66.024 40.254C54.3551 40.8612 53.3102 40.7745 52.2652 39.2999C51.6556 38.4325 50.7848 36.3506 50.2623 34.7025C49.7398 33.0544 49.1303 29.0643 48.869 25.8548C48.4336 20.4767 48.5207 19.9563 50.0011 19.9563ZM33.1944 21.0839C38.4193 21.2574 39.3772 21.5177 40.9446 23.426C42.2509 25.0741 42.5121 26.2885 42.0767 28.6305C41.7284 30.2787 40.9446 33.1412 40.248 34.9627C39.1159 38.0855 38.8547 38.1722 34.936 38.1722C32.5849 38.1722 28.5791 38.7794 25.9667 39.4734C23.3543 40.1673 20.3064 40.7745 19.2614 40.7745C17.8681 40.7745 16.8232 39.9071 15.8653 37.912C15.0815 36.4374 14.1236 32.7074 13.8624 29.6715C13.5141 26.2885 13.6882 24.2934 14.2107 24.2934C14.7332 24.2934 17.8681 23.5127 21.1772 22.5586C25.0959 21.4309 29.3629 20.9105 33.1944 21.0839ZM34.5877 43.4635C35.3715 43.8105 36.7648 44.9381 37.7226 45.9791C39.203 47.6272 39.4643 49.1018 39.4643 57.1688C39.4643 64.8889 39.1159 67.0575 37.4614 70.4405C36.0681 73.4764 34.849 74.8643 32.9332 75.4715C31.0174 76.0787 29.7112 75.992 27.9696 75.1246C26.5763 74.5174 24.4863 72.4355 23.1801 70.614C21.8739 68.7056 20.7418 67.0575 20.8289 66.7973C20.8289 66.537 22.4834 66.884 24.4863 67.578C26.4892 68.2719 28.8404 68.5321 29.7112 68.2719C30.4949 67.9249 31.8011 66.7973 32.4978 65.6696C33.1944 64.6287 33.9782 61.5927 34.2394 58.9904C34.5877 56.2147 34.4136 53.2654 33.8911 51.7908C33.1944 50.056 32.3236 49.4488 30.582 49.4488C29.1887 49.5355 25.9667 50.4029 23.3543 51.5306C19.4356 53.1787 18.2165 53.4389 16.5619 52.5715C15.5169 52.051 14.3849 51.0969 14.2107 50.4897C13.9495 49.8825 15.9524 48.4078 19.4356 46.8465C22.5705 45.4586 26.9246 43.8972 29.1016 43.5503C31.3657 43.2033 33.804 43.1166 34.5877 43.4635ZM66.8948 45.1984C68.114 45.1984 69.5073 45.4586 70.0298 45.8056C70.5522 46.1525 71.336 47.1935 71.8585 48.1476C72.5551 49.4488 72.468 50.7499 71.6843 52.9185C71.0747 54.5666 70.3781 57.7761 70.0298 60.1181C69.5944 63.6745 69.7685 64.4552 71.6843 66.3636C72.9034 67.578 74.6451 68.5321 75.6029 68.5321C76.5608 68.5321 78.7379 67.9249 80.3924 67.231C82.5694 66.2768 83.6144 65.2359 83.9627 63.5011C84.224 62.1999 84.224 58.9037 83.9627 56.1279C83.7015 53.4389 83.7015 51.1836 84.1369 51.1836C84.4852 51.1836 87.0106 55.2605 89.7972 60.2916C92.4967 65.3227 94.7608 69.92 94.7608 70.4405C94.7608 71.0477 93.0192 72.5223 90.8421 73.7367C87.6201 75.4715 85.6173 75.9052 80.5666 75.9052C75.8642 75.9052 73.513 75.4715 71.336 74.1704C69.6814 73.2162 67.5044 71.0477 66.5465 69.3996C65.1532 67.0575 64.7178 64.542 64.5436 58.2965C64.2824 51.0101 64.1082 50.3162 62.5408 50.3162C61.5829 50.3162 60.1896 50.4897 59.4929 50.7499C58.6221 51.0101 58.1867 52.3113 58.1867 54.2196C58.1867 56.3882 57.0547 58.817 54.2681 62.8939C52.091 66.0166 49.4786 68.9658 46.4308 70.5272L47.1274 59.7711C47.4757 53.8726 47.9111 48.8416 48.1724 48.5813C48.3465 48.3211 49.2174 48.7548 49.914 49.4488C51.1331 50.5764 51.8298 50.4897 56.5322 48.4946C59.4059 47.2802 62.4537 46.0658 63.2374 45.8056C64.0212 45.5453 65.6757 45.2851 66.8948 45.1984ZM28.3179 54.6533C28.9274 54.6533 29.7112 55.6942 29.9724 56.9954C30.2337 58.3832 30.1466 59.6844 29.7112 60.0314C29.3629 60.4651 27.2729 61.2458 25.0959 61.9397C22.9188 62.6336 20.8289 62.9806 20.4806 62.6336C20.1322 62.2867 19.7839 61.5927 19.6968 60.9855C19.6968 60.4651 21.3514 58.817 23.4413 57.3423C25.5313 55.8677 27.7083 54.6533 28.3179 54.6533ZM1.58396 96.2897C2.10645 96.2897 3.2385 97.7644 5.76386 102.795L6.983 99.4992C7.85381 97.3307 8.72462 96.2897 9.50835 96.4632C10.2921 96.7235 10.8146 98.4583 10.9887 101.755C11.0758 104.617 10.8146 106.699 10.2921 106.699C9.85667 106.699 9.33419 105.398 8.98586 101.061L7.4184 103.836C6.63467 105.398 5.67678 106.699 5.32845 106.699C4.89305 106.699 4.1964 105.658 2.71602 101.928L2.19353 104.27C1.84521 105.658 1.23564 106.699 0.713151 106.699C0.190664 106.699 -0.0705792 104.704 0.0165019 102.102C0.0165019 99.6727 0.277745 97.3307 0.451908 96.8969C0.62607 96.55 1.14856 96.2897 1.58396 96.2897ZM18.3035 96.4632C18.826 96.55 19.6968 98.1113 20.3064 99.7595C20.916 101.408 21.6126 103.663 21.961 104.704C22.3093 106.178 22.1351 106.699 21.1772 106.699C20.4806 106.699 19.6968 106.092 19.4356 105.398C19.1744 104.704 18.3906 104.097 17.694 104.097C16.9973 104.097 16.2136 104.704 15.9524 105.398C15.6911 106.092 15.1686 106.699 14.6461 106.699C14.1236 106.699 14.0366 105.658 14.2978 104.27C14.5591 102.969 15.3428 100.627 16.1265 99.0655C16.8232 97.4174 17.7811 96.2897 18.3035 96.4632ZM26.1408 96.8102C26.7504 96.9837 28.0566 98.4583 30.6691 102.795L31.1045 99.9329C31.3657 98.3716 32.0624 96.9837 32.4978 96.8969C33.0203 96.8102 33.4557 98.9788 33.6298 101.668C33.7169 105.658 33.5427 106.699 32.4978 106.699C31.8011 106.699 30.1466 105.311 26.4021 100.54V103.576C26.4021 105.311 26.0538 106.612 25.5313 106.439C25.0959 106.352 24.7476 104.27 24.6605 101.928C24.6605 99.4992 24.7476 97.3307 24.8346 96.9837C25.0088 96.6367 25.5313 96.55 26.1408 96.8102ZM41.6413 96.2897C43.3829 96.2897 44.2537 96.7235 44.2537 97.5909C44.2537 98.5451 43.6442 98.7185 42.3379 98.3716C41.2059 98.1113 39.8126 98.3716 39.203 99.0655C38.5935 99.6727 38.2451 101.147 38.3322 102.362C38.5064 103.836 39.203 104.617 40.5963 104.704C41.6413 104.877 42.5121 104.617 42.5121 104.097C42.5121 103.576 42.1638 103.229 41.6413 103.229C41.2059 103.229 40.7705 102.882 40.7705 102.362C40.7705 101.841 41.6413 101.581 42.6863 101.668C43.8183 101.841 44.7762 102.535 44.8633 103.229C45.0375 103.923 44.8633 104.964 44.4279 105.571C44.0796 106.092 42.7733 106.786 41.4671 107.046C39.7255 107.393 38.5064 107.046 37.2872 105.831C36.3293 104.877 35.5456 103.142 35.5456 101.928C35.5456 100.714 36.3293 98.9788 37.2872 98.0246C38.2451 97.0704 40.1609 96.2897 41.6413 96.2897ZM51.4815 96.4632C52.091 96.7235 53.3102 98.892 54.2681 101.321C55.226 103.836 55.7484 106.092 55.4001 106.439C54.9647 106.872 53.9197 106.352 51.0461 103.663L49.3915 105.571C48.5207 106.699 47.5628 107.219 47.3016 106.699C47.0403 106.178 47.4757 104.183 48.1724 102.102C48.9561 100.106 49.7398 97.9379 50.0011 97.3307C50.2623 96.6367 50.959 96.2897 51.4815 96.4632ZM68.7235 96.2897C70.1168 96.2897 71.2489 96.6367 71.2489 97.1572C71.2489 97.6776 70.3781 98.0246 69.246 98.0246C68.114 98.0246 66.8078 98.5451 66.1982 99.0655C65.5886 99.6727 65.1532 101.061 65.1532 102.102C65.1532 103.229 65.9369 104.444 66.8948 104.964C68.0559 105.542 68.7816 105.542 69.0719 104.964C69.3331 104.444 69.246 103.489 68.8977 102.622C68.3752 101.581 68.5494 101.321 69.9427 101.581C70.9876 101.841 71.7714 102.709 71.9455 103.923C72.0326 105.137 71.5101 106.178 70.3781 106.699C69.4202 107.219 67.7656 107.393 66.7207 107.133C65.5886 106.872 64.1953 105.745 63.6728 104.53C63.0633 103.316 62.5408 102.015 62.4537 101.581C62.3666 101.234 63.2374 99.8462 64.2824 98.5451C65.5015 97.0415 66.9819 96.2897 68.7235 96.2897ZM75.5159 96.2897C76.0384 96.2897 76.5608 98.1113 76.6479 100.367C76.9092 103.923 77.1704 104.53 78.912 104.704C80.6537 104.964 80.8278 104.53 81.0891 100.8C81.1761 98.5451 81.6986 96.7235 82.134 96.7235C82.5694 96.7235 83.0919 98.2848 83.2661 100.193C83.4403 102.622 83.0919 104.27 81.8728 105.831C80.3053 107.74 79.7828 107.913 77.6058 107.133C75.3417 106.265 75.1675 105.831 74.9063 101.234C74.7321 98.1981 74.9934 96.2897 75.5159 96.2897ZM87.2718 96.4632C87.7943 96.7235 88.3168 99.0655 88.491 101.755C88.578 105.658 88.4039 106.699 87.3589 106.699C86.3139 106.699 86.0527 105.571 86.1398 101.408C86.1978 97.88 86.5752 96.2319 87.2718 96.4632ZM91.2775 96.2897H94.3254C96.6766 96.2897 97.8086 96.8969 99.1149 98.6318C100.16 100.02 100.944 101.408 100.944 101.928C100.944 102.448 100.247 103.663 99.3761 104.791C98.5053 105.831 96.3283 107.046 91.2775 108V96.2897ZM102.598 96.203L105.82 96.4632C107.649 96.6367 108.955 97.0704 108.868 97.5909C108.694 98.1113 107.823 98.4583 106.865 98.4583C105.994 98.4583 105.211 98.9788 105.211 99.4992C105.211 100.106 106.256 100.974 110 102.188L107.126 102.969C105.559 103.316 104.253 103.923 104.253 104.27C104.34 104.704 105.385 105.051 106.604 105.137C107.91 105.311 109.129 105.918 109.216 106.439C109.478 107.219 108.52 107.48 103.034 107.133L102.598 96.203Z" fill="white"/>
</svg>
