<svg width="262" height="35" viewBox="0 0 262 35" fill="none" xmlns="http://www.w3.org/2000/svg">
<path d="M4.625 8.76562V33.0469H0.96875V3.51562L5.46875 2.85938L12.6875 21.6094L21.125 3.42188L24.6875 3.70312L26.9375 33.7969H23.75L22.0625 9.14062L13.5312 26.5781L11.4688 26.2969L4.625 8.76562ZM36.875 18.1406H44.0938L40.0625 7.54688L36.875 18.1406ZM32.4688 33.5156L29.2812 32.7656L38.9375 2.20312H41L52.3438 32.9531L49.3438 33.7969L44.9375 21.0469H36.125L32.4688 33.5156ZM59.0938 10.0781V33.1406H55.4375V4.07812L58.7188 3.60938L72.9688 28.9219V2.48438L77.1875 2.95312V32.2969L71.9375 33.1406L59.0938 10.0781ZM102.594 19.3594C102.5 20.4219 102.391 21.5938 102.266 22.875C102.172 24.125 102.078 25.4219 101.984 26.7656L101.375 34.7344L98.4688 34.4531L99.125 25.6406C98.9062 25.9531 98.5469 26.3438 98.0469 26.8125C97.5781 27.2812 96.9844 27.7344 96.2656 28.1719C95.5469 28.5781 94.7188 28.9375 93.7812 29.25C92.8438 29.5625 91.8281 29.7188 90.7344 29.7188C89.2344 29.7188 87.8281 29.4219 86.5156 28.8281C85.2344 28.2344 84.125 27.4062 83.1875 26.3438C82.25 25.2812 81.5 24.0156 80.9375 22.5469C80.4062 21.0469 80.1406 19.4062 80.1406 17.625C80.1406 15.25 80.4375 13.0469 81.0312 11.0156C81.6562 8.95312 82.5 7.17188 83.5625 5.67188C84.6562 4.14063 85.9531 2.95312 87.4531 2.10938C88.9531 1.23438 90.5938 0.796875 92.375 0.796875C93.4375 0.796875 94.4219 0.9375 95.3281 1.21875C96.2656 1.46875 97.0938 1.8125 97.8125 2.25C98.5312 2.65625 99.1406 3.14062 99.6406 3.70312C100.141 4.26562 100.5 4.82812 100.719 5.39062L98.1875 6.70312C97.5625 5.70312 96.7656 4.96875 95.7969 4.5C94.8281 4.03125 93.8125 3.79688 92.75 3.79688C91.4375 3.79688 90.2031 4.125 89.0469 4.78125C87.9219 5.40625 86.9375 6.3125 86.0938 7.5C85.2812 8.65625 84.625 10.0625 84.125 11.7188C83.6562 13.3438 83.4219 15.1406 83.4219 17.1094C83.4219 18.3281 83.5781 19.5156 83.8906 20.6719C84.2344 21.7969 84.7188 22.7969 85.3438 23.6719C86 24.5156 86.8125 25.2031 87.7812 25.7344C88.75 26.2344 89.8906 26.4844 91.2031 26.4844C92.2031 26.4844 93.1562 26.2812 94.0625 25.875C95 25.4688 95.8281 24.9375 96.5469 24.2812C97.2656 23.625 97.8438 22.875 98.2812 22.0312C98.75 21.1562 99.0312 20.2656 99.125 19.3594H91.0625V16.3594H107.656V19.3594H102.594ZM117.688 18.1406H124.906L120.875 7.54688L117.688 18.1406ZM113.281 33.5156L110.094 32.7656L119.75 2.20312H121.812L133.156 32.9531L130.156 33.7969L125.75 21.0469H116.938L113.281 33.5156ZM170.281 19.3594C170.188 20.4219 170.078 21.5938 169.953 22.875C169.859 24.125 169.766 25.4219 169.672 26.7656L169.062 34.7344L166.156 34.4531L166.812 25.6406C166.594 25.9531 166.234 26.3438 165.734 26.8125C165.266 27.2812 164.672 27.7344 163.953 28.1719C163.234 28.5781 162.406 28.9375 161.469 29.25C160.531 29.5625 159.516 29.7188 158.422 29.7188C156.922 29.7188 155.516 29.4219 154.203 28.8281C152.922 28.2344 151.812 27.4062 150.875 26.3438C149.938 25.2812 149.188 24.0156 148.625 22.5469C148.094 21.0469 147.828 19.4062 147.828 17.625C147.828 15.25 148.125 13.0469 148.719 11.0156C149.344 8.95312 150.188 7.17188 151.25 5.67188C152.344 4.14063 153.641 2.95312 155.141 2.10938C156.641 1.23438 158.281 0.796875 160.062 0.796875C161.125 0.796875 162.109 0.9375 163.016 1.21875C163.953 1.46875 164.781 1.8125 165.5 2.25C166.219 2.65625 166.828 3.14062 167.328 3.70312C167.828 4.26562 168.188 4.82812 168.406 5.39062L165.875 6.70312C165.25 5.70312 164.453 4.96875 163.484 4.5C162.516 4.03125 161.5 3.79688 160.438 3.79688C159.125 3.79688 157.891 4.125 156.734 4.78125C155.609 5.40625 154.625 6.3125 153.781 7.5C152.969 8.65625 152.312 10.0625 151.812 11.7188C151.344 13.3438 151.109 15.1406 151.109 17.1094C151.109 18.3281 151.266 19.5156 151.578 20.6719C151.922 21.7969 152.406 22.7969 153.031 23.6719C153.688 24.5156 154.5 25.2031 155.469 25.7344C156.438 26.2344 157.578 26.4844 158.891 26.4844C159.891 26.4844 160.844 26.2812 161.75 25.875C162.688 25.4688 163.516 24.9375 164.234 24.2812C164.953 23.625 165.531 22.875 165.969 22.0312C166.438 21.1562 166.719 20.2656 166.812 19.3594H158.75V16.3594H175.344V19.3594H170.281ZM179.938 30.6094V2.95312H183.219V29.4844H200.094V32.8594H181.812L179.938 30.6094ZM215.281 32.0156H204.125V29.3906H207.781V5.95312H202.531V3.42188L212.844 2.76562V5.48438L209.469 5.76562V29.2031H215.281V32.0156ZM221.281 34.0781L219.781 32.2031C219.594 27.5156 219.453 22.9375 219.359 18.4688C219.297 14 219.188 9.42188 219.031 4.73438L220.438 3.04688C221 2.98437 221.547 2.9375 222.078 2.90625C222.641 2.875 223.188 2.85938 223.719 2.85938C225.906 2.85938 227.906 3.14062 229.719 3.70312C231.562 4.26562 233.141 5.15625 234.453 6.375C235.766 7.59375 236.781 9.15625 237.5 11.0625C238.25 12.9688 238.625 15.25 238.625 17.9062C238.625 20.2812 238.188 22.4688 237.312 24.4688C236.469 26.4375 235.297 28.1406 233.797 29.5781C232.297 30.9844 230.531 32.0938 228.5 32.9062C226.5 33.6875 224.344 34.0781 222.031 34.0781H221.281ZM221.938 5.95312L222.875 30.9844C224.688 30.7969 226.375 30.3594 227.938 29.6719C229.5 28.9531 230.844 28.0312 231.969 26.9062C233.125 25.7812 234.016 24.4688 234.641 22.9688C235.297 21.4375 235.625 19.7812 235.625 18C235.625 16.0938 235.391 14.3906 234.922 12.8906C234.484 11.3906 233.766 10.125 232.766 9.09375C231.797 8.0625 230.531 7.28125 228.969 6.75C227.406 6.1875 225.531 5.90625 223.344 5.90625C223.125 5.90625 222.891 5.92188 222.641 5.95312C222.422 5.95312 222.188 5.95312 221.938 5.95312ZM261.875 29.7656V33.0469H244.062L242.375 30.7969V6.04688L244.25 3.32812H259.344V6.04688H245.656V16.5469H260.281V19.0781H245.469V29.7656H261.875Z" fill="white"/>
</svg>
