<svg width="123" height="132" viewBox="0 0 123 132" fill="none" xmlns="http://www.w3.org/2000/svg">
<g clip-path="url(#clip0_52_165)">
<rect x="0.364349" y="0.104813" width="122" height="131" rx="14" fill="#E9E6E6"/>
<circle cx="94.3643" cy="24.1048" r="7" fill="url(#paint0_linear_52_165)"/>
<path d="M32.8643 48.1048L0.364349 91.1048V130.605H121.864V85.6048L85.3643 63.1048L60.8643 85.6048L32.8643 48.1048Z" fill="white" stroke="#908A8A" stroke-width="2"/>
<path d="M44.9893 102.91L45.4581 108.347C46.0362 108.347 46.6768 108.324 47.38 108.277C48.0987 108.214 48.7706 108.081 49.3956 107.878C50.0206 107.675 50.544 107.378 50.9659 106.988C51.4034 106.597 51.6222 106.058 51.6222 105.37C51.6222 104.839 51.505 104.402 51.2706 104.058C51.0362 103.699 50.7237 103.425 50.3331 103.238C49.9425 103.035 49.4972 102.894 48.9972 102.816C48.5128 102.738 48.005 102.699 47.4737 102.699C47.005 102.699 46.5518 102.722 46.1143 102.769C45.6768 102.8 45.3018 102.847 44.9893 102.91ZM45.505 109.8L46.0675 117.394L44.5675 117.488L43.4425 102.347L44.1925 101.456C44.7237 101.41 45.255 101.37 45.7862 101.339C46.3175 101.308 46.8409 101.292 47.3565 101.292C48.169 101.292 48.919 101.347 49.6065 101.456C50.3097 101.566 50.919 101.777 51.4347 102.089C51.9503 102.386 52.3565 102.808 52.6534 103.355C52.9503 103.886 53.0987 104.581 53.0987 105.441C53.0987 106.441 52.8487 107.222 52.3487 107.785C51.8643 108.347 51.2472 108.777 50.4972 109.074C49.7472 109.355 48.9268 109.542 48.0362 109.636C47.1456 109.714 46.3018 109.769 45.505 109.8ZM56.1925 104.644V116.175H54.3643V101.644L56.005 101.41L63.13 114.066V100.847L65.2393 101.081V115.753L62.6143 116.175L56.1925 104.644ZM77.9425 109.285C77.8956 109.816 77.8409 110.402 77.7784 111.042C77.7315 111.667 77.6847 112.316 77.6378 112.988L77.3331 116.972L75.88 116.831L76.2081 112.425C76.0987 112.581 75.919 112.777 75.669 113.011C75.4347 113.245 75.1378 113.472 74.7784 113.691C74.419 113.894 74.005 114.074 73.5362 114.23C73.0675 114.386 72.5597 114.464 72.0128 114.464C71.2628 114.464 70.5597 114.316 69.9034 114.019C69.2628 113.722 68.7081 113.308 68.2393 112.777C67.7706 112.245 67.3956 111.613 67.1143 110.878C66.8487 110.128 66.7159 109.308 66.7159 108.417C66.7159 107.23 66.8643 106.128 67.1612 105.113C67.4737 104.081 67.8956 103.191 68.4268 102.441C68.9737 101.675 69.6222 101.081 70.3722 100.66C71.1222 100.222 71.9425 100.003 72.8331 100.003C73.3643 100.003 73.8565 100.074 74.3097 100.214C74.7784 100.339 75.1925 100.511 75.5518 100.73C75.9112 100.933 76.2159 101.175 76.4659 101.456C76.7159 101.738 76.8956 102.019 77.005 102.3L75.7393 102.956C75.4268 102.456 75.0284 102.089 74.544 101.855C74.0597 101.62 73.5518 101.503 73.0206 101.503C72.3643 101.503 71.7472 101.667 71.169 101.995C70.6065 102.308 70.1143 102.761 69.6925 103.355C69.2862 103.933 68.9581 104.636 68.7081 105.464C68.4737 106.277 68.3565 107.175 68.3565 108.16C68.3565 108.769 68.4347 109.363 68.5909 109.941C68.7628 110.503 69.005 111.003 69.3175 111.441C69.6456 111.863 70.0518 112.206 70.5362 112.472C71.0206 112.722 71.5909 112.847 72.2472 112.847C72.7472 112.847 73.2237 112.745 73.6768 112.542C74.1456 112.339 74.5597 112.074 74.919 111.745C75.2784 111.417 75.5675 111.042 75.7862 110.62C76.0206 110.183 76.1612 109.738 76.2081 109.285H72.1768V107.785H80.4737V109.285H77.9425Z" fill="#908A8A"/>
</g>
<rect x="1.36435" y="1.10481" width="120" height="129" rx="13" stroke="#908A8A" stroke-width="2"/>
<defs>
<linearGradient id="paint0_linear_52_165" x1="98.8643" y1="19.1048" x2="89.8643" y2="29.6048" gradientUnits="userSpaceOnUse">
<stop stop-color="#999999"/>
<stop offset="0.5" stop-color="#CCCCCC"/>
<stop offset="1" stop-color="white"/>
</linearGradient>
<clipPath id="clip0_52_165">
<rect x="0.364349" y="0.104813" width="122" height="131" rx="14" fill="white"/>
</clipPath>
</defs>
</svg>
