<svg width="123" height="132" viewBox="0 0 123 132" fill="none" xmlns="http://www.w3.org/2000/svg">
<g clip-path="url(#clip0_52_160)">
<rect x="0.360229" y="0.101151" width="122" height="131" rx="14" fill="#E9E6E6"/>
<circle cx="94.3602" cy="24.1011" r="7" fill="url(#paint0_linear_52_160)"/>
<path d="M32.8602 48.1012L0.360229 91.1011V130.601H121.86V85.6011L85.3602 63.1011L60.8602 85.6011L32.8602 48.1012Z" fill="white" stroke="#908A8A" stroke-width="2"/>
<path d="M44.9852 102.906L45.454 108.343C46.0321 108.343 46.6727 108.32 47.3759 108.273C48.0946 108.211 48.7665 108.078 49.3915 107.875C50.0165 107.671 50.5399 107.375 50.9618 106.984C51.3993 106.593 51.618 106.054 51.618 105.367C51.618 104.836 51.5009 104.398 51.2665 104.054C51.0321 103.695 50.7196 103.421 50.329 103.234C49.9384 103.031 49.493 102.89 48.993 102.812C48.5087 102.734 48.0009 102.695 47.4696 102.695C47.0009 102.695 46.5477 102.718 46.1102 102.765C45.6727 102.796 45.2977 102.843 44.9852 102.906ZM45.5009 109.796L46.0634 117.39L44.5634 117.484L43.4384 102.343L44.1884 101.453C44.7196 101.406 45.2509 101.367 45.7821 101.336C46.3134 101.304 46.8368 101.289 47.3524 101.289C48.1649 101.289 48.9149 101.343 49.6024 101.453C50.3055 101.562 50.9149 101.773 51.4305 102.086C51.9462 102.382 52.3524 102.804 52.6493 103.351C52.9462 103.882 53.0946 104.578 53.0946 105.437C53.0946 106.437 52.8446 107.218 52.3446 107.781C51.8602 108.343 51.243 108.773 50.493 109.07C49.743 109.351 48.9227 109.539 48.0321 109.632C47.1415 109.711 46.2977 109.765 45.5009 109.796ZM55.3915 116.64L54.6415 115.703C54.5477 113.359 54.4774 111.07 54.4305 108.836C54.3993 106.601 54.3446 104.312 54.2665 101.968L54.9696 101.125C55.2509 101.093 55.5243 101.07 55.7899 101.054C56.0712 101.039 56.3446 101.031 56.6102 101.031C57.704 101.031 58.704 101.171 59.6102 101.453C60.5321 101.734 61.3212 102.179 61.9774 102.789C62.6337 103.398 63.1415 104.179 63.5009 105.132C63.8759 106.086 64.0634 107.226 64.0634 108.554C64.0634 109.742 63.8446 110.836 63.4071 111.836C62.9852 112.82 62.3993 113.671 61.6493 114.39C60.8993 115.093 60.0165 115.648 59.0009 116.054C58.0009 116.445 56.9227 116.64 55.7665 116.64H55.3915ZM55.7196 102.578L56.1884 115.093C57.0946 115 57.9384 114.781 58.7196 114.437C59.5009 114.078 60.1727 113.617 60.7352 113.054C61.3134 112.492 61.7587 111.836 62.0712 111.086C62.3993 110.32 62.5634 109.492 62.5634 108.601C62.5634 107.648 62.4462 106.796 62.2118 106.046C61.993 105.296 61.6337 104.664 61.1337 104.148C60.6493 103.632 60.0165 103.242 59.2352 102.976C58.454 102.695 57.5165 102.554 56.4227 102.554C56.3134 102.554 56.1962 102.562 56.0712 102.578C55.9618 102.578 55.8446 102.578 55.7196 102.578ZM66.9227 100.984H74.704L74.6102 102.531H67.4384V107.921H74.9384V109.468H67.3446V116.171H65.6102V101.828L66.9227 100.984Z" fill="#908A8A"/>
</g>
<rect x="1.36023" y="1.10115" width="120" height="129" rx="13" stroke="#908A8A" stroke-width="2"/>
<defs>
<linearGradient id="paint0_linear_52_160" x1="98.8602" y1="19.1011" x2="89.8602" y2="29.6011" gradientUnits="userSpaceOnUse">
<stop stop-color="#999999"/>
<stop offset="0.5" stop-color="#CCCCCC"/>
<stop offset="1" stop-color="white"/>
</linearGradient>
<clipPath id="clip0_52_160">
<rect x="0.360229" y="0.101151" width="122" height="131" rx="14" fill="white"/>
</clipPath>
</defs>
</svg>
